<svg xmlns="http://www.w3.org/2000/svg" viewBox="0 0 77.79 21.14"><defs><style>.cls-1{font-size:17.8px;fill:#356;font-family:TitilliumWeb-Regular, Titillium Web;letter-spacing:-0.01em;}.cls-1,.cls-2{stroke:#356;}.cls-1,.cls-2,.cls-3{stroke-miterlimit:10;}.cls-2,.cls-3{fill:none;stroke-linecap:round;}.cls-2{stroke-width:1.2px;}.cls-3{stroke:#fff;stroke-width:0.5px;}</style></defs><title>BleeperAsset 3</title><g id="Layer_2" data-name="Layer 2"><g id="Layer_1-2" data-name="Layer 1"><text class="cls-1" transform="translate(21.1 15.56)">Bleeper</text><path class="cls-2" d="M.6,15.56H6.21c.2,0,.37-.24.37-.54V7.78c0-.3.16-.54.37-.54H8.42c.2,0,.37.24.37.54V15c0,.3.16.54.37.54H11c.2,0,.37-.24.37-.54V7.78c0-.3.16-.54.37-.54H13c.2,0,.37.24.37.54V15c0,.3.16.54.37.54H15.3c.2,0,.37-.24.37-.54V7.78c0-.3.16-.54.37-.54h1.33c.2,0,.37.24.37.54V15c0,.3.16.54.37.54h1.44c.2,0,.37-.24.37-.54V3.82s.06-.56-.4-.53H6.57"/><path class="cls-3" d="M.6,15.56H6.21c.2,0,.37-.24.37-.54V7.78c0-.3.16-.54.37-.54H8.42c.2,0,.37.24.37.54V15c0,.3.16.54.37.54H11c.2,0,.37-.24.37-.54V7.78c0-.3.16-.54.37-.54H13c.2,0,.37.24.37.54V15c0,.3.16.54.37.54H15.3c.2,0,.37-.24.37-.54V7.78c0-.3.16-.54.37-.54h1.33c.2,0,.37.24.37.54V15c0,.3.16.54.37.54h1.44c.2,0,.37-.24.37-.54V3.53c0-.26-.37-.26-.37-.26h-13"/></g></g></svg>